<svg xmlns="http://www.w3.org/2000/svg" viewBox="0 0 465 128">
  <title>Attityd</title>
  <path
    d="M.667 98.277h24.96l4.096-13.568h30.464l4.096 13.568h26.24l-29.312-89.6H29.34L.667 98.277zm35.456-35.328l8.192-27.52h1.28l8.192 27.52H36.123zM120.348 48.74h23.424v24.577c0 15.488 9.472 24.96 25.216 24.96h15.232V78.693h-8.448c-4.992 0-7.936-2.688-7.936-6.784V48.74h16.384V30.18h-16.384V12.389h-22.784v10.88c0 4.224-2.304 7.168-6.528 7.168h-18.176V12.389H97.564v10.88c0 4.224-2.304 7.168-6.528 7.168h-4.992V48.74h10.24v24.576c0 15.488 9.472 24.96 25.216 24.96h15.232V78.693h-8.448c-4.992 0-7.936-2.688-7.936-6.784V48.74zM205.723 24.677c7.936 0 13.568-4.48 13.568-12.288 0-7.68-5.632-12.288-13.568-12.288s-13.568 4.608-13.568 12.288c0 7.808 5.632 12.288 13.568 12.288zM193.819 98.277h24.064V30.18h-24.064v68.097zM291.996 127.717h9.728c15.744 0 24.448-8.192 29.568-22.144l27.392-75.392h-25.216L322.332 67.3h-1.152l-12.416-37.12h-24.832l26.624 68.352-.384 1.024c-1.536 4.096-4.352 7.04-9.216 7.04h-8.96v21.121zM262.3 98.277h15.231V78.693h-8.448c-4.992 0-7.936-2.688-7.936-6.784V48.74h16.384V30.18h-16.384V12.389h-22.784v10.88c0 4.224-2.304 7.168-6.528 7.168h-4.992V48.74h10.24v24.576c0 15.488 9.472 24.96 25.216 24.96l.001.001zM389.02 99.94c9.727 0 14.847-4.735 16.895-8.063h1.152v6.4h23.936v-96h-24.064V36.58h-1.152c-2.432-3.584-7.936-8.064-17.152-8.064-17.92 0-29.952 14.592-29.952 36.224 0 21.632 12.288 35.2 30.336 35.2h.001zm6.143-21.76c-7.296 0-12.16-5.631-12.16-13.951s4.864-13.952 12.16-13.952 12.16 5.632 12.16 13.952-4.864 13.952-12.16 13.952v-.001zM453.02 99.94c7.552 0 12.544-4.863 12.544-12.16 0-6.911-4.992-12.16-12.544-12.16-6.912 0-12.416 5.249-12.416 12.16 0 7.297 5.504 12.16 12.416 12.16z"
  />
</svg>
